<svg xmlns="http://www.w3.org/2000/svg" viewBox="0 0 220 320">
<defs>
  <linearGradient id="skin" x1="0" y1="0" x2=".85" y2="1">
    <stop stop-color="#f0c5aa"/><stop offset="1" stop-color="#c98464"/>
  </linearGradient>
  <linearGradient id="green" x1="0" y1="0" x2=".8" y2="1">
    <stop stop-color="#3f7e5e"/><stop offset=".55" stop-color="#245841"/><stop offset="1" stop-color="#16382d"/>
  </linearGradient>
  <linearGradient id="blacktop" x1="0" y1="0" x2="1" y2="1">
    <stop stop-color="#48414d"/><stop offset=".48" stop-color="#232027"/><stop offset="1" stop-color="#0d0c10"/>
  </linearGradient>
  <linearGradient id="denim" x1="0" y1="0" x2=".8" y2="1">
    <stop stop-color="#38404b"/><stop offset="1" stop-color="#171b22"/>
  </linearGradient>
  <linearGradient id="glass" x1="0" y1="0" x2="1" y2="1">
    <stop stop-color="#d6eff6" stop-opacity=".88"/><stop offset="1" stop-color="#6da6b7" stop-opacity=".75"/>
  </linearGradient>
  <filter id="shadow" x="-40%" y="-40%" width="180%" height="180%">
    <feGaussianBlur stdDeviation="5"/>
  </filter>
  <filter id="drop" x="-40%" y="-40%" width="180%" height="180%">
    <feDropShadow dx="0" dy="8" stdDeviation="6" flood-color="#000" flood-opacity=".3"/>
  </filter>
</defs>
      <ellipse cx="110" cy="292" rx="48" ry="11" fill="#000" opacity=".18" filter="url(#shadow)"/>
      <path d="M91 206 L91 279" stroke="#242a34" stroke-width="20" stroke-linecap="round"/>
      <path d="M129 206 L129 279" stroke="#171c24" stroke-width="20" stroke-linecap="round"/>
      <path d="M76 276 Q92 269 108 278 L106 292 H78 Q71 286 76 276Z" fill="#dde2e8" stroke="#17131b" stroke-width="4"/>
      <path d="M120 278 Q136 271 150 280 Q155 287 150 293 H121Z" fill="#cfd5dc" stroke="#17131b" stroke-width="4"/>
      <path d="M76 136 Q110 121 144 136 L140 213 Q110 229 80 213Z" fill="url(#green)" stroke="#17131b" stroke-width="5"/>
      <path d="M82 151 Q63 173 68 210" fill="none" stroke="url(#skin)" stroke-width="15" stroke-linecap="round"/>
      <path d="M138 151 Q157 173 152 200" fill="none" stroke="url(#skin)" stroke-width="15" stroke-linecap="round"/>
      <ellipse cx="110" cy="88" rx="40" ry="44" fill="#30232a" stroke="#17131b" stroke-width="5"/>
      <path d="M72 84 Q76 45 108 36 Q144 31 149 75 Q136 61 124 59 Q102 51 78 69Z" fill="#3b2930"/>
      <path d="M88 127 Q110 137 132 127" fill="none" stroke="#6b513e" stroke-width="3"/>
      <path d="M88 142 Q110 150 133 142" fill="none" stroke="#ffffff22" stroke-width="2"/>
    </svg>