<svg xmlns="http://www.w3.org/2000/svg" viewBox="0 0 1600 900">
 <defs>
  <linearGradient id="sky" x1="0" y1="0" x2="0" y2="1"><stop stop-color="#263d36"/><stop offset="1" stop-color="#162921"/></linearGradient>
  <linearGradient id="wood" x1="0" y1="0" x2="1" y2="1"><stop stop-color="#6a4936"/><stop offset="1" stop-color="#3d2b24"/></linearGradient>
  <linearGradient id="warm" x1="0" y1="0" x2="0" y2="1"><stop stop-color="#f2bf65"/><stop offset="1" stop-color="#b86f3f"/></linearGradient>
  <pattern id="brick" width="80" height="38" patternUnits="userSpaceOnUse"><rect width="80" height="38" fill="#4f342d"/><path d="M0 0H80M0 38H80M40 0V19M0 19H80M0 19V38M80 19V38" stroke="#69463b" stroke-width="3" opacity=".55"/></pattern>
  <pattern id="tile" width="70" height="70" patternUnits="userSpaceOnUse"><rect width="70" height="70" fill="#233a43"/><path d="M35 5L65 35 35 65 5 35Z" fill="none" stroke="#6bb0b7" stroke-width="4" opacity=".45"/><circle cx="35" cy="35" r="7" fill="#d79c50" opacity=".55"/></pattern>
  <filter id="shadow"><feDropShadow dx="0" dy="12" stdDeviation="12" flood-opacity=".35"/></filter>
 </defs>
<rect width="1600" height="900" fill="url(#sky)"/>
<rect y="585" width="1600" height="315" fill="#7f6a58"/>
<path d="M0 710H1600" stroke="#55483e" stroke-width="10" stroke-dasharray="88 64" opacity=".55"/>
<path d="M800 585V900" stroke="#55483e" stroke-width="10" stroke-dasharray="70 55" opacity=".45"/>
<rect y="540" width="1600" height="45" fill="#a48e74"/>
<rect y="525" width="1600" height="18" fill="#c1a988"/>
<!-- left building: coffee -->
<g filter="url(#shadow)">
 <path d="M90 460L300 260 510 460Z" fill="#493b50" stroke="#17131b" stroke-width="12"/>
 <rect x="120" y="455" width="360" height="180" rx="8" fill="#312832" stroke="#17131b" stroke-width="12"/>
 <rect x="175" y="515" width="95" height="120" fill="#17141b"/>
 <rect x="305" y="488" width="125" height="72" rx="7" fill="#f0e9df"/>
 <text x="368" y="533" text-anchor="middle" font-family="Arial Black, sans-serif" font-size="28" fill="#241e28">4AM COFFEE</text>
 <circle cx="390" cy="590" r="18" fill="#f0c66d"/><path d="M380 590h22" stroke="#55382d" stroke-width="6"/>
</g>
<!-- right building: tap -->
<g filter="url(#shadow)">
 <path d="M1030 420L1285 220 1540 420Z" fill="#333844" stroke="#17131b" stroke-width="12"/>
 <rect x="1060" y="415" width="450" height="220" rx="8" fill="#28343b" stroke="#17131b" stroke-width="12"/>
 <rect x="1130" y="495" width="100" height="140" fill="#15141a"/>
 <rect x="1260" y="468" width="180" height="78" rx="8" fill="#d9e0db"/>
 <text x="1350" y="512" text-anchor="middle" font-family="Arial Black, sans-serif" font-size="31" fill="#233027">TAP &amp; VINE</text>
 <g opacity=".9"><circle cx="1288" cy="583" r="12" fill="#d5507c"/><circle cx="1325" cy="583" r="12" fill="#f0c66d"/><circle cx="1362" cy="583" r="12" fill="#58a58b"/></g>
</g>
<!-- central green -->
<rect x="530" y="250" width="500" height="280" rx="42" fill="#2f6c4b" stroke="#204a35" stroke-width="10"/>
<path d="M580 315C680 270 870 270 970 315" stroke="#5e956d" stroke-width="8" fill="none"/>
<ellipse cx="655" cy="438" rx="78" ry="34" fill="#24563c"/>
<ellipse cx="890" cy="425" rx="88" ry="38" fill="#24563c"/>
<rect x="725" y="365" width="150" height="26" rx="8" fill="#5c4533"/><rect x="744" y="391" width="16" height="45" fill="#4a392c"/><rect x="840" y="391" width="16" height="45" fill="#4a392c"/>
<!-- car spot -->
<g transform="translate(360 720)" filter="url(#shadow)">
 <ellipse cx="0" cy="32" rx="105" ry="25" fill="#000" opacity=".2"/>
 <rect x="-104" y="-35" width="208" height="80" rx="26" fill="#2f6370" stroke="#17131b" stroke-width="9"/>
 <path d="M-58 -35L-26 -78H44L75 -35Z" fill="#9bcad0" stroke="#17131b" stroke-width="8"/>
 <circle cx="-66" cy="44" r="24" fill="#17191d"/><circle cx="68" cy="44" r="24" fill="#17191d"/>
</g>
<!-- integrated mini signs -->
<g font-family="Arial Black,sans-serif">
 <rect x="610" y="285" width="340" height="62" rx="12" fill="#14151a" opacity=".9"/>
 <text x="780" y="326" text-anchor="middle" font-size="25" fill="#f1eee7">WEIRD FRIENDS GREEN</text>
 <rect x="555" y="500" width="188" height="34" rx="8" fill="#2b2631"/>
 <text x="649" y="524" text-anchor="middle" font-size="16" fill="#f0c66d">KENDAL 2027 →</text>
</g>
</svg>