<svg xmlns="http://www.w3.org/2000/svg" viewBox="0 0 1600 900">
 <defs>
  <linearGradient id="sky" x1="0" y1="0" x2="0" y2="1"><stop stop-color="#263d36"/><stop offset="1" stop-color="#162921"/></linearGradient>
  <linearGradient id="wood" x1="0" y1="0" x2="1" y2="1"><stop stop-color="#6a4936"/><stop offset="1" stop-color="#3d2b24"/></linearGradient>
  <linearGradient id="warm" x1="0" y1="0" x2="0" y2="1"><stop stop-color="#f2bf65"/><stop offset="1" stop-color="#b86f3f"/></linearGradient>
  <pattern id="brick" width="80" height="38" patternUnits="userSpaceOnUse"><rect width="80" height="38" fill="#4f342d"/><path d="M0 0H80M0 38H80M40 0V19M0 19H80M0 19V38M80 19V38" stroke="#69463b" stroke-width="3" opacity=".55"/></pattern>
  <pattern id="tile" width="70" height="70" patternUnits="userSpaceOnUse"><rect width="70" height="70" fill="#233a43"/><path d="M35 5L65 35 35 65 5 35Z" fill="none" stroke="#6bb0b7" stroke-width="4" opacity=".45"/><circle cx="35" cy="35" r="7" fill="#d79c50" opacity=".55"/></pattern>
  <filter id="shadow"><feDropShadow dx="0" dy="12" stdDeviation="12" flood-opacity=".35"/></filter>
 </defs>
<rect width="1600" height="900" fill="#15242a"/>
<rect y="0" width="1600" height="260" fill="url(#tile)"/>
<rect y="260" width="1600" height="640" fill="#342927"/>
<rect x="110" y="86" width="560" height="112" rx="18" fill="#111319" stroke="#d29b4d" stroke-width="6"/>
<text x="390" y="142" text-anchor="middle" font-family="Georgia,serif" font-size="50" font-weight="bold" fill="#f1e7d6">THE TURKISH</text>
<text x="390" y="174" text-anchor="middle" font-family="Arial,sans-serif" font-size="18" fill="#d6b06b">CHARCOAL • BREAD • FAR TOO MUCH FOOD</text>
<!-- grill -->
<g filter="url(#shadow)">
 <rect x="990" y="95" width="470" height="250" rx="20" fill="#2d3033" stroke="#17131b" stroke-width="12"/>
 <rect x="1040" y="155" width="370" height="100" rx="12" fill="#15171a"/>
 <g stroke="#e37843" stroke-width="8"><path d="M1080 220h290"/><path d="M1100 195h250"/></g>
 <g fill="#f1c56a"><circle cx="1110" cy="190" r="12"/><circle cx="1170" cy="210" r="15"/><circle cx="1260" cy="190" r="12"/><circle cx="1330" cy="212" r="14"/></g>
</g>
<!-- tables -->
<g stroke="#17131b" stroke-width="9" filter="url(#shadow)">
 <ellipse cx="350" cy="520" rx="190" ry="88" fill="#6f4a34"/>
 <ellipse cx="800" cy="620" rx="210" ry="98" fill="#6f4a34"/>
 <ellipse cx="1250" cy="545" rx="180" ry="82" fill="#6f4a34"/>
</g>
<!-- food -->
<g fill="#e9dfcf" stroke="#4d382d" stroke-width="5">
 <ellipse cx="350" cy="500" rx="95" ry="38"/><ellipse cx="800" cy="600" rx="105" ry="42"/><ellipse cx="1250" cy="525" rx="90" ry="36"/>
</g>
<g fill="#b9633d"><circle cx="320" cy="500" r="18"/><circle cx="370" cy="490" r="16"/><circle cx="775" cy="600" r="20"/><circle cx="830" cy="590" r="18"/><circle cx="1230" cy="520" r="18"/></g>
<g fill="#648c4e"><circle cx="395" cy="507" r="14"/><circle cx="855" cy="610" r="14"/><circle cx="1270" cy="530" r="14"/></g>
<!-- Dad joke table -->
<rect x="145" y="735" width="560" height="70" rx="18" fill="#18151a" stroke="#6b5550" stroke-width="4"/>
<text x="425" y="778" text-anchor="middle" font-family="Arial Black" font-size="24" fill="#f0c66d">ORDERED FOR 2 • FED 11 PEOPLE</text>
</svg>